# xmcd CD database file generated by Grip 3.1.2
# 
# Track frame offsets:
#       150
#       14495
#       26727
#       41464
#       60322
#       78152
#       93380
#       108097
#       129395
#       147675
#       164362
#       179865
#       201334
#       223482
#       237392
#       247425
# 
# Disc length: 3457 seconds
# 
# Revision: 2
# Processed by: cddbd v1.4PL0 Copyright (c) Steve Scherf et al.
# Submitted via: Grip 3.1.2
# 
DISCID=f20d7f10
DTITLE=John Denver - Love Again - Greatest and Latest
DYEAR=1996
DGENRE=Country
TTITLE0=Annie's Song
TTITLE1=Perhaps Love
TTITLE2=Dreamland Express
TTITLE3=Rocky Mountain High
TTITLE4=Seasons Of The Heart
TTITLE5=Whispering Jesse
TTITLE6=Take Me Home Country Roads
TTITLE7=For You
TTITLE8=Windsong
TTITLE9=Leaving On A Jetplane
TTITLE10=I'm Sorry
TTITLE11=Back Home Again
TTITLE12=Sunshine On My Shoulders
TTITLE13=Thank God I'm A Country Boy
TTITLE14=Christmas For Cowboys
TTITLE15=Love Again
EXTD=
EXTT0=
EXTT1=
EXTT2=
EXTT3=
EXTT4=
EXTT5=
EXTT6=
EXTT7=
EXTT8=
EXTT9=
EXTT10=
EXTT11=
EXTT12=
EXTT13=
EXTT14=
EXTT15=
PLAYORDER=
